HIERARCHY
ROOT Hips
{
	OFFSET 0.053599 88.859886 3.107447
	CHANNELS 6 Xposition Yposition Zposition Zrotation Yrotation Xrotation 
	JOINT Spine
	{
		OFFSET -0.000000 8.814246 -2.080107
		CHANNELS 3 Zrotation Yrotation Xrotation
		JOINT Spine1
		{
			OFFSET 0.000000 8.844141 0.000000
			CHANNELS 3 Zrotation Yrotation Xrotation
			JOINT Spine2
			{
				OFFSET -0.000000 11.682268 0.000000
				CHANNELS 3 Zrotation Yrotation Xrotation
				JOINT Spine3
				{
					OFFSET 0.000000 11.746700 0.000000
					CHANNELS 3 Zrotation Yrotation Xrotation
					JOINT Neck
					{
						OFFSET -0.000000 17.658264 -0.000000
						CHANNELS 3 Zrotation Yrotation Xrotation
						JOINT Neck1
						{
							OFFSET -0.000000 5.101515 -0.000000
							CHANNELS 3 Zrotation Yrotation Xrotation
							JOINT Head
							{
								OFFSET 0.000000 5.101515 0.000000
								CHANNELS 3 Zrotation Yrotation Xrotation
								JOINT HeadEnd
								{
									OFFSET 0.000000 11.655085 0.000000
									CHANNELS 3 Zrotation Yrotation Xrotation
									End Site
									{
										OFFSET 0.000000 0.000000 0.000000
									}
								}
							}
						}
					}
					JOINT RightShoulder
					{
						OFFSET -2.625389 11.175210 0.000000
						CHANNELS 3 Zrotation Yrotation Xrotation
						JOINT RightArm
						{
							OFFSET -0.000000 10.434715 -0.000000
							CHANNELS 3 Zrotation Yrotation Xrotation
							JOINT RightForeArm
							{
								OFFSET -0.000000 29.628420 0.000000
								CHANNELS 3 Zrotation Yrotation Xrotation
								JOINT RightHand
								{
									OFFSET -0.000000 22.857611 0.000000
									CHANNELS 3 Zrotation Yrotation Xrotation
									JOINT RightHandThumb1
									{
										OFFSET -2.867323 3.959563 2.944291
										CHANNELS 3 Zrotation Yrotation Xrotation
										JOINT RightHandThumb2
										{
											OFFSET 0.000000 3.350399 0.000000
											CHANNELS 3 Zrotation Yrotation Xrotation
											JOINT RightHandThumb3
											{
												OFFSET 0.000000 3.756509 -0.000000
												CHANNELS 3 Zrotation Yrotation Xrotation
												JOINT RightHandThumb4
												{
													OFFSET 0.000000 3.147345 0.000000
													CHANNELS 3 Zrotation Yrotation Xrotation
													End Site
													{
														OFFSET 0.000000 0.000000 0.000000
													}
												}
											}
										}
									}
									JOINT RightHandIndex1
									{
										OFFSET -0.086752 10.030893 2.345280
										CHANNELS 3 Zrotation Yrotation Xrotation
										JOINT RightHandIndex2
										{
											OFFSET -0.000000 4.061090 0.000000
											CHANNELS 3 Zrotation Yrotation Xrotation
											JOINT RightHandIndex3
											{
												OFFSET -0.000000 3.248873 0.000000
												CHANNELS 3 Zrotation Yrotation Xrotation
												JOINT RightHandIndex4
												{
													OFFSET 0.000000 2.639709 -0.000000
													CHANNELS 3 Zrotation Yrotation Xrotation
													End Site
													{
														OFFSET 0.000000 0.000000 0.000000
													}
												}
											}
										}
									}
									JOINT RightHandMiddle1
									{
										OFFSET 0.104102 9.502952 0.006768
										CHANNELS 3 Zrotation Yrotation Xrotation
										JOINT RightHandMiddle2
										{
											OFFSET 0.000000 4.568727 0.000000
											CHANNELS 3 Zrotation Yrotation Xrotation
											JOINT RightHandMiddle3
											{
												OFFSET 0.000000 3.654981 -0.000000
												CHANNELS 3 Zrotation Yrotation Xrotation
												JOINT RightHandMiddle4
												{
													OFFSET -0.000000 2.741236 -0.000000
													CHANNELS 3 Zrotation Yrotation Xrotation
													End Site
													{
														OFFSET 0.000000 0.000000 0.000000
													}
												}
											}
										}
									}
									JOINT RightHandRing1
									{
										OFFSET 0.086752 8.921708 -2.267442
										CHANNELS 3 Zrotation Yrotation Xrotation
										JOINT RightHandRing2
										{
											OFFSET -0.000000 4.061090 0.000000
											CHANNELS 3 Zrotation Yrotation Xrotation
											JOINT RightHandRing3
											{
												OFFSET 0.000000 3.654981 -0.000000
												CHANNELS 3 Zrotation Yrotation Xrotation
												JOINT RightHandRing4
												{
													OFFSET 0.000000 2.741236 -0.000000
													CHANNELS 3 Zrotation Yrotation Xrotation
													End Site
													{
														OFFSET 0.000000 0.000000 0.000000
													}
												}
											}
										}
									}
									JOINT RightHandPinky1
									{
										OFFSET -0.173504 7.976997 -4.467199
										CHANNELS 3 Zrotation Yrotation Xrotation
										JOINT RightHandPinky2
										{
											OFFSET 0.000000 3.350399 -0.000000
											CHANNELS 3 Zrotation Yrotation Xrotation
											JOINT RightHandPinky3
											{
												OFFSET -0.000000 2.842763 0.000000
												CHANNELS 3 Zrotation Yrotation Xrotation
												JOINT RightHandPinky4
												{
													OFFSET -0.000000 2.639709 0.000000
													CHANNELS 3 Zrotation Yrotation Xrotation
													End Site
													{
														OFFSET 0.000000 0.000000 0.000000
													}
												}
											}
										}
									}
									JOINT RightForeArmEnd
									{
										OFFSET 0.000000 0.000000 0.000000
										CHANNELS 3 Zrotation Yrotation Xrotation
										End Site
										{
											OFFSET 0.000000 0.000000 0.000000
										}
									}
								}
								JOINT RightArmEnd
								{
									OFFSET 0.000000 0.000000 0.000000
									CHANNELS 3 Zrotation Yrotation Xrotation
									End Site
									{
										OFFSET 0.000000 0.000000 0.000000
									}
								}
							}
						}
					}
					JOINT LeftShoulder
					{
						OFFSET 2.625389 11.175210 0.000000
						CHANNELS 3 Zrotation Yrotation Xrotation
						JOINT LeftArm
						{
							OFFSET 0.000000 10.813635 -0.000000
							CHANNELS 3 Zrotation Yrotation Xrotation
							JOINT LeftForeArm
							{
								OFFSET 0.000000 28.724781 0.000000
								CHANNELS 3 Zrotation Yrotation Xrotation
								JOINT LeftHand
								{
									OFFSET 0.644384 25.716167 -0.328871
									CHANNELS 3 Zrotation Yrotation Xrotation
									JOINT LeftHandThumb1
									{
										OFFSET 2.867323 3.959563 2.944291
										CHANNELS 3 Zrotation Yrotation Xrotation
										JOINT LeftHandThumb2
										{
											OFFSET 0.000000 3.350399 0.000000
											CHANNELS 3 Zrotation Yrotation Xrotation
											JOINT LeftHandThumb3
											{
												OFFSET -0.000000 3.756509 0.000000
												CHANNELS 3 Zrotation Yrotation Xrotation
												JOINT LeftHandThumb4
												{
													OFFSET -0.000000 3.100000 0.000000
													CHANNELS 3 Zrotation Yrotation Xrotation
													End Site
													{
														OFFSET 0.000000 0.000000 0.000000
													}
												}
											}
										}
									}
									JOINT LeftHandIndex1
									{
										OFFSET 0.086752 10.030893 2.345280
										CHANNELS 3 Zrotation Yrotation Xrotation
										JOINT LeftHandIndex2
										{
											OFFSET -0.000000 4.061090 -0.000000
											CHANNELS 3 Zrotation Yrotation Xrotation
											JOINT LeftHandIndex3
											{
												OFFSET 0.000000 3.248873 -0.000000
												CHANNELS 3 Zrotation Yrotation Xrotation
												JOINT LeftHandIndex4
												{
													OFFSET 0.000000 2.639709 -0.000000
													CHANNELS 3 Zrotation Yrotation Xrotation
													End Site
													{
														OFFSET 0.000000 0.000000 0.000000
													}
												}
											}
										}
									}
									JOINT LeftHandMiddle1
									{
										OFFSET -0.104102 9.502952 0.006768
										CHANNELS 3 Zrotation Yrotation Xrotation
										JOINT LeftHandMiddle2
										{
											OFFSET -0.000000 4.568727 -0.000000
											CHANNELS 3 Zrotation Yrotation Xrotation
											JOINT LeftHandMiddle3
											{
												OFFSET 0.000000 3.654981 0.000000
												CHANNELS 3 Zrotation Yrotation Xrotation
												JOINT LeftHandMiddle4
												{
													OFFSET 0.000000 2.741236 -0.000000
													CHANNELS 3 Zrotation Yrotation Xrotation
													End Site
													{
														OFFSET 0.000000 0.000000 0.000000
													}
												}
											}
										}
									}
									JOINT LeftHandRing1
									{
										OFFSET -0.086752 8.921708 -2.267442
										CHANNELS 3 Zrotation Yrotation Xrotation
										JOINT LeftHandRing2
										{
											OFFSET 0.000000 4.061090 0.000000
											CHANNELS 3 Zrotation Yrotation Xrotation
											JOINT LeftHandRing3
											{
												OFFSET 0.000000 3.654981 0.000000
												CHANNELS 3 Zrotation Yrotation Xrotation
												JOINT LeftHandRing4
												{
													OFFSET 0.000000 2.741236 0.000000
													CHANNELS 3 Zrotation Yrotation Xrotation
													End Site
													{
														OFFSET 0.000000 0.000000 0.000000
													}
												}
											}
										}
									}
									JOINT LeftHandPinky1
									{
										OFFSET 0.173504 7.976997 -4.467199
										CHANNELS 3 Zrotation Yrotation Xrotation
										JOINT LeftHandPinky2
										{
											OFFSET -0.000000 3.350399 -0.000000
											CHANNELS 3 Zrotation Yrotation Xrotation
											JOINT LeftHandPinky3
											{
												OFFSET 0.000000 2.842763 0.000000
												CHANNELS 3 Zrotation Yrotation Xrotation
												JOINT LeftHandPinky4
												{
													OFFSET -0.000000 2.639709 -0.000000
													CHANNELS 3 Zrotation Yrotation Xrotation
													End Site
													{
														OFFSET 0.000000 0.000000 0.000000
													}
												}
											}
										}
									}
									JOINT LeftForeArmEnd
									{
										OFFSET 0.000000 0.000000 0.000000
										CHANNELS 3 Zrotation Yrotation Xrotation
										End Site
										{
											OFFSET 0.000000 0.000000 0.000000
										}
									}
								}
								JOINT LeftArmEnd
								{
									OFFSET 0.000000 0.000000 0.000000
									CHANNELS 3 Zrotation Yrotation Xrotation
									End Site
									{
										OFFSET 0.000000 0.000000 0.000000
									}
								}
							}
						}
					}
				}
			}
		}
	}
	JOINT RightUpLeg
	{
		OFFSET -11.289943 0.000000 0.000000
		CHANNELS 3 Zrotation Yrotation Xrotation
		JOINT RightLeg
		{
			OFFSET 0.000000 -38.200325 0.000000
			CHANNELS 3 Zrotation Yrotation Xrotation
			JOINT RightFoot
			{
				OFFSET -0.000000 -39.900856 -0.000000
				CHANNELS 3 Zrotation Yrotation Xrotation
				JOINT RightToeBase
				{
					OFFSET 0.000000 0.000000 15.261641
					CHANNELS 3 Zrotation Yrotation Xrotation
					JOINT RightToeBaseEnd
					{
						OFFSET 0.000000 0.000000 7.370709
						CHANNELS 3 Zrotation Yrotation Xrotation
						End Site
						{
							OFFSET 0.000000 0.000000 0.000000
						}
					}
				}
				JOINT RightLegEnd
				{
					OFFSET 0.000000 0.000000 0.000000
					CHANNELS 3 Zrotation Yrotation Xrotation
					End Site
					{
						OFFSET 0.000000 0.000000 0.000000
					}
				}
			}
			JOINT RightUpLegEnd
			{
				OFFSET 0.000000 0.000000 0.000000
				CHANNELS 3 Zrotation Yrotation Xrotation
				End Site
				{
					OFFSET 0.000000 0.000000 0.000000
				}
			}
		}
	}
	JOINT LeftUpLeg
	{
		OFFSET 11.315661 -0.000000 0.000000
		CHANNELS 3 Zrotation Yrotation Xrotation
		JOINT LeftLeg
		{
			OFFSET -0.000000 -38.200325 -0.000000
			CHANNELS 3 Zrotation Yrotation Xrotation
			JOINT LeftFoot
			{
				OFFSET 0.000000 -39.900856 -0.000000
				CHANNELS 3 Zrotation Yrotation Xrotation
				JOINT LeftToeBase
				{
					OFFSET -0.000000 -0.000000 15.261641
					CHANNELS 3 Zrotation Yrotation Xrotation
					JOINT LeftToeBaseEnd
					{
						OFFSET 0.000000 -0.000000 7.539996
						CHANNELS 3 Zrotation Yrotation Xrotation
						End Site
						{
							OFFSET 0.000000 0.000000 0.000000
						}
					}
				}
				JOINT LeftLegEnd
				{
					OFFSET 0.000000 0.000000 0.000000
					CHANNELS 3 Zrotation Yrotation Xrotation
					End Site
					{
						OFFSET 0.000000 0.000000 0.000000
					}
				}
			}
			JOINT LeftUpLegEnd
			{
				OFFSET 0.000000 0.000000 0.000000
				CHANNELS 3 Zrotation Yrotation Xrotation
				End Site
				{
					OFFSET 0.000000 0.000000 0.000000
				}
			}
		}
	}
}
MOTION
Frames: 5
Frame Time: 0.016667
0.427267 88.489212 3.459642 0.461937 0.447061 -10.385000 0.809001 0.013862 7.538759 -1.420946 0.380847 3.449508 -0.003132 -0.770673 5.893908 -1.578737 0.025637 5.588675 1.379605 -0.245547 4.790442 0.427313 0.166684 -3.411404 -0.100335 -0.817300 -20.221596 0.000000 0.000000 0.000000 90.027229 -0.090168 8.238810 69.467125 -7.714815 -3.686074 -0.748058 21.787901 71.841248 -21.840870 -7.507679 1.789187 16.741116 31.178602 65.265640 -4.833536 -6.309744 -11.099612 -3.581065 -4.082983 -7.471297 0.000000 0.000000 0.000000 -12.704949 -6.746026 13.144419 0.587628 0.508721 0.508569 0.106009 0.093335 0.652210 0.000000 0.000000 0.000000 -12.170384 -1.384094 7.549953 -0.221536 0.524164 0.151136 0.277471 0.025545 0.166856 0.000000 0.000000 0.000000 -10.531096 6.302420 0.090803 0.146689 -0.995615 -0.401095 0.021665 -0.016339 -0.269633 0.000000 0.000000 0.000000 -9.426703 14.514506 -7.273461 0.973760 -1.920657 -1.028423 0.641386 0.016158 -0.777820 0.000000 0.000000 0.000000 0.000000 0.000000 0.000000 0.000000 0.000000 0.000000 -88.338455 0.126655 3.616609 -69.249512 -3.428972 -6.039917 -0.967848 -17.848053 83.035210 21.250219 4.219863 0.635006 -15.892328 -31.498142 66.108841 4.002506 4.412322 -8.148790 2.761160 3.055264 -5.857734 0.000000 0.000000 0.000000 12.205380 -11.082146 16.382021 -0.066783 0.484463 -0.427098 -0.245205 0.023585 -0.448444 0.000000 0.000000 0.000000 11.106380 -5.560080 10.255487 -0.490020 0.492119 -0.214639 -1.202238 0.010091 -0.187327 0.000000 0.000000 0.000000 7.040654 3.293790 2.245602 -3.554146 -0.962727 0.478340 -3.332505 0.007783 0.387899 0.000000 0.000000 0.000000 1.534104 13.516026 -6.006875 -6.564455 -1.775011 1.800747 -6.039877 0.202206 1.552176 0.000000 0.000000 0.000000 0.000000 0.000000 0.000000 0.000000 0.000000 0.000000 -1.365657 -8.676794 14.301021 -0.090321 -0.717986 6.636431 -2.858144 -7.200525 15.549608 -0.755447 0.929422 -18.388203 0.000000 0.000000 0.000000 0.000000 0.000000 0.000000 0.000000 0.000000 0.000000 -2.070745 -6.039829 8.560731 0.058821 0.322675 11.357123 4.142518 -2.308767 15.627517 0.144988 -0.511127 -20.603317 0.000000 0.000000 0.000000 0.000000 0.000000 0.000000 0.000000 0.000000 0.000000 
0.427491 88.490036 3.496064 0.451652 0.495493 -10.398750 0.808893 0.012923 7.557539 -1.400171 0.377625 3.443326 -0.036159 -0.746216 5.950499 -1.570218 0.021902 5.583785 1.357381 -0.239900 4.816393 0.429503 0.164775 -3.397999 -0.096881 -0.820306 -20.195946 0.000000 0.000000 0.000000 90.040794 -0.083992 8.267516 69.448578 -7.652756 -3.616068 -0.725062 21.811485 71.469513 -21.510220 -7.176084 1.612106 16.773283 31.166817 65.234367 -4.877999 -6.362548 -11.198154 -3.612067 -4.120347 -7.540879 0.000000 0.000000 0.000000 -12.451681 -6.786115 13.035521 0.573255 0.510150 0.512507 0.088052 0.095197 0.657238 0.000000 0.000000 0.000000 -11.893429 -1.426177 7.490714 -0.240077 0.524729 0.152496 0.262279 0.026046 0.168486 0.000000 0.000000 0.000000 -10.153212 6.241167 0.102227 0.164099 -0.995991 -0.402924 0.032506 -0.016958 -0.270689 0.000000 0.000000 0.000000 -8.980623 14.451081 -7.225028 1.029497 -1.923058 -1.030337 0.687428 0.013485 -0.777234 0.000000 0.000000 0.000000 0.000000 0.000000 0.000000 0.000000 0.000000 0.000000 -88.339561 0.131205 3.643802 -69.196419 -3.493587 -5.920635 -0.974494 -17.902088 82.936012 20.911589 4.296851 0.455327 -15.951223 -31.473541 66.041534 4.087075 4.528786 -8.344550 2.821550 3.133411 -5.995335 0.000000 0.000000 0.000000 11.767424 -11.000239 16.168339 -0.053305 0.482946 -0.438236 -0.231744 0.022116 -0.458312 0.000000 0.000000 0.000000 10.606444 -5.472242 10.106289 -0.482372 0.491315 -0.219562 -1.193368 0.009559 -0.191413 0.000000 0.000000 0.000000 6.409500 3.395782 2.188371 -3.606391 -0.961962 0.486073 -3.375797 0.008439 0.394214 0.000000 0.000000 0.000000 0.866910 13.623306 -6.003168 -6.668702 -1.770648 1.828080 -6.135886 0.204812 1.576124 0.000000 0.000000 0.000000 0.000000 0.000000 0.000000 0.000000 0.000000 0.000000 -1.369434 -8.725977 14.360078 -0.090114 -0.718162 6.606306 -2.844318 -7.193422 15.519560 -0.754879 0.933079 -18.368305 0.000000 0.000000 0.000000 0.000000 0.000000 0.000000 0.000000 0.000000 0.000000 -2.041681 -6.048324 8.572088 0.059321 0.325850 11.353407 4.133307 -2.357446 15.600719 0.149306 -0.513057 -20.597467 0.000000 0.000000 0.000000 0.000000 0.000000 0.000000 0.000000 0.000000 0.000000 
0.429051 88.491112 3.533258 0.441078 0.539738 -10.411907 0.809831 0.011928 7.578135 -1.378143 0.374031 3.436042 -0.068910 -0.718929 6.011862 -1.561958 0.019482 5.576993 1.341642 -0.231006 4.832578 0.431452 0.168272 -3.388944 -0.094440 -0.822768 -20.167433 0.000000 0.000000 0.000000 90.054657 -0.078458 8.298578 69.427071 -7.603049 -3.541847 -0.702686 21.825840 71.067390 -21.134062 -6.859807 1.412236 16.806477 31.154461 65.201027 -4.924461 -6.417965 -11.301602 -3.644480 -4.159515 -7.614059 0.000000 0.000000 0.000000 -12.179832 -6.829242 12.913561 0.558467 0.510899 0.518194 0.069699 0.096443 0.663697 0.000000 0.000000 0.000000 -11.597585 -1.471202 7.422504 -0.259348 0.524962 0.154562 0.246477 0.026293 0.170751 0.000000 0.000000 0.000000 -9.753354 6.176248 0.111242 0.183345 -0.995894 -0.405777 0.045528 -0.017194 -0.272490 0.000000 0.000000 0.000000 -8.511545 14.383492 -7.174993 1.089407 -1.924183 -1.035106 0.736650 0.011867 -0.778960 0.000000 0.000000 0.000000 0.000000 0.000000 0.000000 0.000000 0.000000 0.000000 -88.341255 0.135935 3.670768 -69.148804 -3.550611 -5.808252 -0.981582 -17.954662 82.800949 20.528465 4.381735 0.239869 -16.014072 -31.447138 65.969025 4.177501 4.653349 -8.554264 2.886112 3.217123 -6.142729 0.000000 0.000000 0.000000 11.297632 -10.911422 15.927973 -0.037570 0.480893 -0.451455 -0.215928 0.020123 -0.469978 0.000000 0.000000 0.000000 10.073583 -5.378319 9.937899 -0.472444 0.490257 -0.225349 -1.181404 0.008833 -0.196122 0.000000 0.000000 0.000000 5.739438 3.503249 2.123005 -3.658355 -0.960873 0.494848 -3.418700 0.009361 0.401385 0.000000 0.000000 0.000000 0.160461 13.734291 -5.999617 -6.775057 -1.765298 1.858685 -6.234516 0.208147 1.602728 0.000000 0.000000 0.000000 0.000000 0.000000 0.000000 0.000000 0.000000 0.000000 -1.373510 -8.776338 14.416824 -0.089887 -0.718239 6.577239 -2.829791 -7.182170 15.491234 -0.754393 0.936833 -18.349817 0.000000 0.000000 0.000000 0.000000 0.000000 0.000000 0.000000 0.000000 0.000000 -2.012492 -6.053290 8.582329 0.059743 0.328672 11.349862 4.125383 -2.405292 15.574385 0.153321 -0.514673 -20.592258 0.000000 0.000000 0.000000 0.000000 0.000000 0.000000 0.000000 0.000000 0.000000 
0.431847 88.492500 3.571329 0.430807 0.579746 -10.423482 0.811703 0.010901 7.599317 -1.355615 0.370222 3.427415 -0.101334 -0.688980 6.076272 -1.554065 0.018582 5.568709 1.330108 -0.219437 4.838880 0.432912 0.175280 -3.384682 -0.092978 -0.824772 -20.137451 0.000000 0.000000 0.000000 90.067184 -0.073669 8.330408 69.402870 -7.558866 -3.468004 -0.681177 21.832455 70.641647 -20.711824 -6.554363 1.193807 16.842119 31.140938 65.163857 -4.974985 -6.479137 -11.415071 -3.679847 -4.202427 -7.694266 0.000000 0.000000 0.000000 -11.877707 -6.877575 12.774968 0.546545 0.511301 0.524281 0.054196 0.097364 0.670319 0.000000 0.000000 0.000000 -11.271484 -1.521219 7.341794 -0.275827 0.525009 0.156738 0.233366 0.026403 0.173141 0.000000 0.000000 0.000000 -9.321686 6.106080 0.115084 0.207724 -0.995542 -0.408847 0.064013 -0.017227 -0.274418 0.000000 0.000000 0.000000 -8.012295 14.310504 -7.124318 1.156519 -1.924609 -1.040484 0.792074 0.010873 -0.781227 0.000000 0.000000 0.000000 0.000000 0.000000 0.000000 0.000000 0.000000 0.000000 -88.341904 0.140932 3.695050 -69.107880 -3.606802 -5.706635 -0.988517 -18.003717 82.645889 20.109648 4.472079 0.002645 -16.079998 -31.419333 65.892387 4.272384 4.784295 -8.774900 2.953907 3.305303 -6.297956 0.000000 0.000000 0.000000 10.801879 -10.817164 15.667503 -0.022303 0.478527 -0.465652 -0.200707 0.017810 -0.482427 0.000000 0.000000 0.000000 9.514846 -5.279646 9.755172 -0.463291 0.489063 -0.231561 -1.169495 0.007998 -0.201066 0.000000 0.000000 0.000000 5.038757 3.615033 2.052841 -3.713099 -0.959564 0.504232 -3.464378 0.010468 0.409038 0.000000 0.000000 0.000000 -0.578189 13.847445 -5.994420 -6.885511 -1.759188 1.891506 -6.338147 0.212102 1.631120 0.000000 0.000000 0.000000 0.000000 0.000000 0.000000 0.000000 0.000000 0.000000 -1.378071 -8.826645 14.470626 -0.089650 -0.718219 6.549406 -2.814880 -7.168258 15.465443 -0.753788 0.940481 -18.333231 0.000000 0.000000 0.000000 0.000000 0.000000 0.000000 0.000000 0.000000 0.000000 -1.984531 -6.055330 8.590959 0.060075 0.331266 11.345792 4.118920 -2.452683 15.549650 0.157028 -0.516124 -20.587830 0.000000 0.000000 0.000000 0.000000 0.000000 0.000000 0.000000 0.000000 0.000000 
0.435832 88.494263 3.610425 0.421579 0.615306 -10.432900 0.814474 0.009868 7.619418 -1.332841 0.366293 3.417620 -0.133472 -0.655984 6.141436 -1.546914 0.019492 5.560431 1.318184 -0.206844 4.836962 0.432908 0.182253 -3.384493 -0.091974 -0.826441 -20.108522 0.000000 0.000000 0.000000 90.077278 -0.069818 8.360774 69.372520 -7.514325 -3.399206 -0.660480 21.831930 70.195297 -20.229292 -6.247856 0.957757 16.882401 31.125208 65.119904 -5.033018 -6.551120 -11.546833 -3.720741 -4.252213 -7.787157 0.000000 0.000000 0.000000 -11.525785 -6.934491 12.617017 0.539754 0.511575 0.529828 0.043488 0.098164 0.676208 0.000000 0.000000 0.000000 -10.895254 -1.579710 7.245848 -0.287095 0.524943 0.158585 0.225331 0.026444 0.175283 0.000000 0.000000 0.000000 -8.838243 6.027076 0.111307 0.240690 -0.995075 -0.411454 0.091087 -0.017194 -0.275992 0.000000 0.000000 0.000000 -7.464781 14.228782 -7.074065 1.235019 -1.924848 -1.044390 0.857771 0.010135 -0.782402 0.000000 0.000000 0.000000 0.000000 0.000000 0.000000 0.000000 0.000000 0.000000 -88.340080 0.146577 3.713772 -69.072502 -3.664865 -5.618112 -0.994502 -18.049606 82.478745 19.654615 4.570035 -0.254257 -16.146894 -31.391077 65.814217 4.368607 4.917313 -8.999179 3.022687 3.395129 -6.456044 0.000000 0.000000 0.000000 10.296447 -10.720745 15.396939 -0.011969 0.475886 -0.480355 -0.190921 0.015218 -0.495245 0.000000 0.000000 0.000000 8.947093 -5.179294 9.565200 -0.460151 0.487776 -0.238046 -1.162867 0.007086 -0.206089 0.000000 0.000000 0.000000 4.324347 3.728863 1.982077 -3.777032 -0.957986 0.514164 -3.519120 0.011803 0.417107 0.000000 0.000000 0.000000 -1.335077 13.961493 -5.986150 -7.005696 -1.752083 1.926491 -6.452806 0.216916 1.661274 0.000000 0.000000 0.000000 0.000000 0.000000 0.000000 0.000000 0.000000 0.000000 -1.383093 -8.875815 14.521420 -0.089407 -0.718072 6.523216 -2.800061 -7.153632 15.442822 -0.752722 0.943680 -18.319372 0.000000 0.000000 0.000000 0.000000 0.000000 0.000000 0.000000 0.000000 0.000000 -1.959391 -6.055532 8.598095 0.060296 0.333692 11.339691 4.113991 -2.501075 15.527522 0.160364 -0.517664 -20.584351 0.000000 0.000000 0.000000 0.000000 0.000000 0.000000 0.000000 0.000000 0.000000 
